<?xml version="1.0" encoding="utf-8"?>
<!-- Generator: Adobe Illustrator 15.0.0, SVG Export Plug-In  -->
<!DOCTYPE svg PUBLIC "-//W3C//DTD SVG 1.1//EN" "http://www.w3.org/Graphics/SVG/1.1/DTD/svg11.dtd" [
	<!ENTITY ns_flows "http://ns.adobe.com/Flows/1.0/">
]>
<svg version="1.1"
	 xmlns="http://www.w3.org/2000/svg" xmlns:xlink="http://www.w3.org/1999/xlink" xmlns:a="http://ns.adobe.com/AdobeSVGViewerExtensions/3.0/"
	 x="0px" y="0px" width="188px" height="41px" viewBox="9 82.3623 188 41" style="enable-background:new 9 82.3623 188 41;"
	 xml:space="preserve">
<style type="text/css">
<![CDATA[
	.st0{opacity:0.8;}
	.st1{fill-rule:evenodd;clip-rule:evenodd;fill:#F6F4F5;}
	.st2{fill-rule:evenodd;clip-rule:evenodd;fill:#FFFFFF;}
]]>
</style>
<defs>
</defs>
<g id="NILE_LOGISTIC_1_">
	<g>
		<path class="st2" d="M80.89893,112.14453l-6.00391-9.19629h-2.6792v13.41406h2.6792v-9.12012l6.00391,9.12012h2.6792v-13.41406
			h-2.6792V112.14453z M85.62988,116.3623h2.6792v-13.41406h-2.6792V116.3623z M93.04004,102.94824h-2.6792v13.41406h7.18213
			v-2.05176h-4.50293V102.94824z M98.75879,116.3623h7.99902v-2.14746h-5.32031v-3.60938h4.75v-2.05176h-4.75v-3.47754h5.32031
			v-2.12793h-7.99902V116.3623z M114.79492,102.94824h-2.67969v13.41406h7.18164v-2.05176h-4.50195V102.94824z M130.21289,103.63184
			c-1.01953-0.58203-2.15625-0.87305-3.41016-0.87305s-2.3916,0.29102-3.41113,0.87305
			c-1.01953,0.58301-1.82324,1.39648-2.41309,2.44238c-0.58887,1.04492-0.88281,2.22559-0.88281,3.54297
			s0.29395,2.50195,0.88281,3.55273c0.58984,1.05176,1.39355,1.86914,2.41309,2.45117
			c1.01953,0.58301,2.15723,0.87402,3.41113,0.87402s2.39063-0.29102,3.41016-0.87402
			c1.01953-0.58203,1.82422-1.39941,2.41211-2.45117c0.58984-1.05078,0.88477-2.23535,0.88477-3.55273
			s-0.29492-2.49805-0.88477-3.54297C132.03711,105.02832,131.23242,104.21484,130.21289,103.63184z M130.26953,111.94434
			c-0.33594,0.66504-0.80078,1.17578-1.39648,1.53027s-1.28516,0.53125-2.07031,0.53125c-0.78613,0-1.47656-0.17676-2.07227-0.53125
			c-0.59473-0.35449-1.06055-0.86523-1.39648-1.53027c-0.33496-0.66406-0.50293-1.44043-0.50293-2.32715
			s0.16797-1.66211,0.50293-2.32715c0.33594-0.66504,0.80176-1.1748,1.39648-1.5293c0.5957-0.35449,1.28613-0.53223,2.07227-0.53223
			c0.78516,0,1.47461,0.17773,2.07031,0.53223s1.06055,0.86426,1.39648,1.5293s0.50391,1.44043,0.50391,2.32715
			S130.60547,111.28027,130.26953,111.94434z M140.9375,110.89063h4.54102c-0.20215,1.01367-0.64844,1.80469-1.33887,2.375
			c-0.69043,0.56934-1.5166,0.85449-2.47949,0.85449c-1.30469,0-2.33398-0.39258-3.08789-1.17773s-1.13086-1.88086-1.13086-3.28711
			c0-0.88672,0.16504-1.65918,0.49414-2.31836c0.33008-0.6582,0.79199-1.16504,1.3877-1.51953
			c0.59473-0.35449,1.27832-0.53223,2.05176-0.53223c0.78516,0,1.46582,0.18066,2.04297,0.54199
			c0.57617,0.36035,0.99707,0.84473,1.26367,1.45313h2.81152c-0.30371-1.36816-0.99512-2.4541-2.07129-3.25879
			c-1.07617-0.80371-2.43164-1.20605-4.06641-1.20605c-1.31641,0-2.47656,0.29102-3.47656,0.87402s-1.77637,1.38965-2.32715,2.42188
			c-0.55176,1.0332-0.82715,2.21387-0.82715,3.54395s0.27539,2.51172,0.82715,3.54395
			c0.55078,1.03223,1.3291,1.83594,2.33691,2.41211c1.00684,0.57715,2.16895,0.86523,3.48633,0.86523
			c1.15234,0,2.17578-0.22461,3.06836-0.6748c0.89258-0.44922,1.61523-1.04785,2.16602-1.7959
			c0.55078-0.74707,0.92188-1.56348,1.11133-2.4502v-2.58398h-6.7832V110.89063z M149.35547,116.3623h2.67773v-13.41406h-2.67773
			V116.3623z M161.35352,109.4082c-0.53906-0.26563-1.23828-0.55078-2.09961-0.85449
			c-0.62109-0.20313-1.11133-0.38672-1.47266-0.55176c-0.36133-0.16406-0.6582-0.37598-0.89258-0.63574
			s-0.35156-0.58594-0.35156-0.97852c0-0.49414,0.15234-0.87109,0.45508-1.13086c0.30469-0.25977,0.70313-0.38965,1.19727-0.38965
			c0.57031,0,1.01953,0.15527,1.34961,0.46582c0.3291,0.31055,0.53125,0.70605,0.60742,1.1875h2.88867
			c-0.11426-1.14063-0.59277-2.05176-1.43555-2.73633c-0.8418-0.68359-1.97266-1.02539-3.39063-1.02539
			c-1.36816,0-2.4668,0.33203-3.29688,0.99707s-1.24414,1.57422-1.24414,2.72656c0,0.83594,0.18652,1.51367,0.56055,2.0332
			c0.37305,0.51953,0.82617,0.91504,1.3584,1.1875s1.21582,0.54785,2.05176,0.82617
			c0.64648,0.21582,1.15234,0.40527,1.51953,0.57031c0.36719,0.16406,0.67188,0.38281,0.91211,0.65527
			s0.36133,0.61719,0.36133,1.03516c0,0.46875-0.14844,0.85254-0.44629,1.14941c-0.29785,0.29785-0.72559,0.44727-1.28223,0.44727
			c-0.62109,0-1.11816-0.18066-1.49219-0.54199c-0.37305-0.36133-0.5918-0.81348-0.65527-1.3584h-2.84961
			c0.06348,0.81055,0.31934,1.51953,0.76855,2.12793c0.4502,0.6084,1.04883,1.07324,1.79688,1.39648
			c0.74609,0.32324,1.5957,0.48438,2.54492,0.48438c0.96289,0,1.7793-0.17383,2.45117-0.52246
			c0.67188-0.34766,1.17773-0.81055,1.51953-1.38672c0.34277-0.57617,0.51367-1.20703,0.51367-1.89063
			c0-0.86133-0.18945-1.55762-0.57031-2.08984C162.35059,110.07324,161.8916,109.67383,161.35352,109.4082z M163.94727,105.07617
			h3.68555v11.28613h2.67871v-11.28613h3.70508v-2.12793h-10.06934V105.07617z M175.11914,116.3623h2.67773v-13.41406h-2.67773
			V116.3623z M188.08594,113.37891c-0.61426,0.41797-1.35156,0.62695-2.21289,0.62695c-0.70996,0-1.34961-0.17676-1.91992-0.53125
			s-1.01367-0.86133-1.33008-1.52051c-0.31641-0.6582-0.47461-1.4248-0.47461-2.29883c0-0.88672,0.1582-1.65918,0.47461-2.31836
			c0.31641-0.6582,0.75977-1.16504,1.33008-1.51953s1.20996-0.53223,1.91992-0.53223c0.86133,0,1.59863,0.20898,2.21289,0.62695
			s1.06641,0.98828,1.3584,1.70996h2.81152c-0.35352-1.48145-1.08203-2.65332-2.18457-3.51465
			c-1.10156-0.86133-2.48926-1.29199-4.16113-1.29199c-1.29102,0-2.42578,0.28809-3.40039,0.86426
			c-0.97559,0.57617-1.73242,1.38379-2.27051,2.42285c-0.53809,1.03809-0.80762,2.22266-0.80762,3.55273
			c0,1.31738,0.26953,2.49512,0.80762,3.53418s1.29785,1.8457,2.28027,2.42188c0.98047,0.57715,2.11133,0.86523,3.39063,0.86523
			c1.67188,0,3.05957-0.43066,4.16113-1.29199c1.10254-0.86133,1.83105-2.0332,2.18457-3.51563h-2.81152
			C189.15234,112.3916,188.7002,112.96094,188.08594,113.37891z"/>
	</g>
</g>
<g id="Transportation_Co._1_" class="st0">
	<g>
		<path class="st1" d="M72.16553,86.61426h2.35205v7.36816h1.37988v-7.36816h2.36377v-1.10352h-6.0957V86.61426z M80.88916,88.66602
			v-1.2959H79.521v6.6123h1.36816v-3.34766c0-0.67188,0.18213-1.1543,0.5459-1.44629
			c0.36426-0.29199,0.84619-0.43848,1.44629-0.43848h0.40771v-1.4873c-0.54395,0-1.02393,0.12598-1.43994,0.37793
			S81.11328,88.23438,80.88916,88.66602z M89.63721,88.90625c-0.17627-0.4873-0.47607-0.87988-0.90039-1.17578
			c-0.42383-0.2959-0.93604-0.44434-1.53564-0.44434c-0.57617,0-1.09033,0.13672-1.54199,0.4082
			c-0.45215,0.27246-0.80615,0.66406-1.06201,1.17578c-0.25635,0.5127-0.38428,1.1123-0.38428,1.80078
			c0,0.69531,0.12793,1.2998,0.38428,1.81152c0.25586,0.51172,0.60986,0.9043,1.06201,1.17578
			c0.45166,0.27246,0.96582,0.4082,1.54199,0.4082c0.59961,0,1.11182-0.14746,1.53564-0.44434
			c0.42432-0.2959,0.72412-0.6875,0.90039-1.17578v1.53613h1.36768v-6.6123h-1.36768V88.90625z M89.37305,91.82227
			c-0.17627,0.32813-0.41602,0.58203-0.72021,0.76172c-0.30371,0.18066-0.64795,0.27051-1.03174,0.27051
			c-0.60791,0-1.09424-0.19434-1.45801-0.58203c-0.36426-0.3877-0.5459-0.92188-0.5459-1.60156
			c0-0.68066,0.18164-1.21484,0.5459-1.60254c0.36377-0.3877,0.8501-0.58203,1.45801-0.58203
			c0.38379,0,0.72803,0.08984,1.03174,0.27051c0.3042,0.17969,0.54395,0.43555,0.72021,0.76758
			c0.17578,0.33203,0.26416,0.71387,0.26416,1.14648C89.63721,91.11035,89.54883,91.49414,89.37305,91.82227z M96.58496,87.2627
			c-0.54443,0-1.02441,0.13574-1.43994,0.4082c-0.41602,0.27148-0.7124,0.65527-0.88818,1.15137v-1.45215h-1.36816v6.6123h1.36816
			V90.4668c0-0.67285,0.16406-1.18262,0.49219-1.53027c0.32764-0.34766,0.76367-0.52246,1.30762-0.52246
			c0.52832,0,0.94434,0.16211,1.24805,0.48633c0.3042,0.32422,0.45605,0.78223,0.45605,1.37402v3.70801h1.36816v-3.85156
			c0-0.91992-0.23193-1.62793-0.6958-2.12402C97.96875,87.51074,97.35303,87.2627,96.58496,87.2627z M104.81055,90.57422
			c-0.30762-0.12012-0.70898-0.23535-1.20508-0.34766c-0.37695-0.08789-0.6665-0.16797-0.87061-0.24023
			s-0.37402-0.17188-0.50977-0.2998c-0.13623-0.12793-0.2041-0.2959-0.2041-0.50391c0-0.28027,0.09375-0.50195,0.28174-0.66602
			s0.4541-0.24609,0.79883-0.24609c0.41504,0,0.75,0.11035,1.00195,0.33008s0.40527,0.50977,0.46094,0.87012h1.29688
			c-0.10449-0.66406-0.39063-1.19434-0.8584-1.58984c-0.46777-0.39648-1.09082-0.59473-1.86621-0.59473
			c-0.74365,0-1.32568,0.17383-1.74561,0.52246c-0.42041,0.34766-0.63037,0.80176-0.63037,1.3623
			c0,0.43164,0.10596,0.77344,0.31836,1.02539c0.21143,0.25195,0.46777,0.43457,0.76758,0.5459
			c0.30029,0.1123,0.69043,0.22461,1.1709,0.33594c0.375,0.08008,0.67188,0.1582,0.88672,0.23438
			c0.2168,0.07617,0.39648,0.18164,0.54102,0.31836c0.14355,0.13574,0.21582,0.31934,0.21582,0.55176
			c0,0.26367-0.09473,0.48145-0.28223,0.65332c-0.1875,0.17285-0.44629,0.25879-0.77344,0.25879
			c-0.45703,0-0.82471-0.1123-1.10449-0.33594c-0.28027-0.22461-0.43994-0.5166-0.47998-0.87598h-1.33203
			c0.104,0.6875,0.40967,1.22363,0.91797,1.60742c0.50781,0.38379,1.17383,0.57617,1.99854,0.57617
			c0.71094,0,1.27734-0.17188,1.69727-0.51563c0.41992-0.34473,0.63086-0.79199,0.63086-1.34473
			c0-0.44727-0.11133-0.80176-0.33008-1.06152C105.38281,90.88477,105.11914,90.69434,104.81055,90.57422z M112.875,87.69434
			c-0.45215-0.27148-0.9668-0.4082-1.54199-0.4082c-0.60059,0-1.1123,0.14844-1.53613,0.44434s-0.7207,0.68848-0.88867,1.17578
			v-1.53613h-1.36719v9.75586h1.36719v-4.67969c0.16797,0.48828,0.46484,0.87988,0.88867,1.17578
			c0.42383,0.29688,0.93555,0.44434,1.53613,0.44434c0.5752,0,1.08984-0.13574,1.54199-0.4082
			c0.45117-0.27148,0.80566-0.66406,1.0625-1.17578c0.25586-0.51172,0.38281-1.11621,0.38281-1.81152
			c0-0.68848-0.12695-1.28809-0.38281-1.80078C113.68066,88.3584,113.32617,87.9668,112.875,87.69434z M112.37695,92.27246
			c-0.36816,0.3877-0.85547,0.58203-1.46387,0.58203c-0.38379,0-0.72754-0.08984-1.03223-0.27051
			c-0.30469-0.17969-0.54395-0.43359-0.7207-0.76172c-0.17578-0.32813-0.26367-0.71191-0.26367-1.15137
			c0-0.43262,0.08789-0.81445,0.26367-1.14648c0.17676-0.33203,0.41602-0.58789,0.7207-0.76758
			c0.30469-0.18066,0.64844-0.27051,1.03223-0.27051c0.6084,0,1.0957,0.19629,1.46387,0.58789
			c0.36719,0.39258,0.55176,0.92383,0.55176,1.59668C112.92871,91.35059,112.74414,91.88477,112.37695,92.27246z
			 M120.63281,87.69434c-0.51172-0.27148-1.08789-0.4082-1.72852-0.4082c-0.63965,0-1.21289,0.13672-1.72168,0.4082
			c-0.50781,0.27246-0.90723,0.66406-1.2002,1.17578c-0.29199,0.5127-0.4375,1.1123-0.4375,1.80078
			c0,0.6875,0.14551,1.28906,0.4375,1.80566c0.29297,0.51563,0.69238,0.91016,1.2002,1.18164
			c0.50879,0.27246,1.08203,0.4082,1.72168,0.4082c0.64063,0,1.2168-0.13574,1.72852-0.4082
			c0.51172-0.27148,0.91211-0.66406,1.19922-1.17578c0.28906-0.51172,0.43262-1.11621,0.43262-1.81152
			c0-0.68848-0.14355-1.28809-0.43262-1.80078C121.54492,88.3584,121.14453,87.9668,120.63281,87.69434z M120.59082,91.89453
			c-0.18066,0.32813-0.41797,0.57227-0.71387,0.73145c-0.29688,0.16016-0.62012,0.24023-0.97266,0.24023
			c-0.35156,0-0.67578-0.08008-0.97168-0.24023c-0.2959-0.15918-0.53418-0.40332-0.71387-0.73145s-0.26953-0.73633-0.26953-1.22363
			c0-0.48047,0.08984-0.88672,0.26953-1.21875s0.41797-0.57715,0.71387-0.7373s0.62012-0.24023,0.97168-0.24023
			c0.35254,0,0.67578,0.08008,0.97266,0.24023c0.2959,0.16016,0.5332,0.40527,0.71387,0.7373
			c0.17969,0.33203,0.27051,0.73828,0.27051,1.21875C120.86133,91.1582,120.77051,91.56641,120.59082,91.89453z M125.19336,88.66602
			v-1.2959h-1.36914v6.6123h1.36914v-3.34766c0-0.67188,0.18164-1.1543,0.54492-1.44629
			c0.36426-0.29199,0.84668-0.43848,1.44629-0.43848h0.4082v-1.4873c-0.54395,0-1.02441,0.12598-1.44043,0.37793
			S125.41602,88.23438,125.19336,88.66602z M130.77832,92.57813c-0.13965-0.14355-0.20996-0.40332-0.20996-0.7793v-3.26465h1.5957
			v-1.16406h-1.5957v-1.64355h-1.37988v1.64355h-0.94824v1.16406h0.94824v3.24023c0,0.79199,0.18262,1.3584,0.5459,1.69824
			c0.36426,0.33984,0.89844,0.50977,1.60156,0.50977h0.84082v-1.18848h-0.66016
			C131.16406,92.79395,130.91797,92.72266,130.77832,92.57813z M138.78906,88.90625
			c-0.17676-0.4873-0.47656-0.87988-0.90039-1.17578s-0.93555-0.44434-1.53613-0.44434c-0.57617,0-1.09082,0.13672-1.54199,0.4082
			c-0.45215,0.27246-0.80664,0.66406-1.0625,1.17578c-0.25586,0.5127-0.38379,1.1123-0.38379,1.80078
			c0,0.69531,0.12793,1.2998,0.38379,1.81152s0.61035,0.9043,1.0625,1.17578c0.45117,0.27246,0.96582,0.4082,1.54199,0.4082
			c0.60059,0,1.1123-0.14746,1.53613-0.44434c0.42383-0.2959,0.72363-0.6875,0.90039-1.17578v1.53613h1.36719v-6.6123h-1.36719
			V88.90625z M138.52441,91.82227c-0.17676,0.32813-0.41602,0.58203-0.71973,0.76172
			c-0.30469,0.18066-0.64844,0.27051-1.03223,0.27051c-0.6084,0-1.09473-0.19434-1.45801-0.58203
			c-0.36426-0.3877-0.5459-0.92188-0.5459-1.60156c0-0.68066,0.18164-1.21484,0.5459-1.60254
			c0.36328-0.3877,0.84961-0.58203,1.45801-0.58203c0.38379,0,0.72754,0.08984,1.03223,0.27051
			c0.30371,0.17969,0.54297,0.43555,0.71973,0.76758c0.17578,0.33203,0.26465,0.71387,0.26465,1.14648
			C138.78906,91.11035,138.7002,91.49414,138.52441,91.82227z M143.9668,92.57813c-0.14063-0.14355-0.21094-0.40332-0.21094-0.7793
			v-3.26465h1.5957v-1.16406h-1.5957v-1.64355h-1.37891v1.64355h-0.94922v1.16406h0.94922v3.24023
			c0,0.79199,0.18164,1.3584,0.54492,1.69824c0.36426,0.33984,0.89844,0.50977,1.60254,0.50977h0.83984v-1.18848h-0.66016
			C144.35156,92.79395,144.10547,92.72266,143.9668,92.57813z M146.88867,93.98242h1.36719v-6.6123h-1.36719V93.98242z
			 M147.57227,84.64648c-0.26367,0-0.47656,0.07617-0.63672,0.22754c-0.16016,0.15234-0.23926,0.34473-0.23926,0.57617
			c0,0.23242,0.0791,0.41992,0.23926,0.56445c0.16016,0.14355,0.37305,0.21582,0.63672,0.21582s0.47754-0.07227,0.6416-0.21582
			c0.16406-0.14453,0.24609-0.33203,0.24609-0.56445c0-0.23145-0.08203-0.42383-0.24609-0.57617
			C148.0498,84.72266,147.83594,84.64648,147.57227,84.64648z M154.9043,87.69434c-0.51172-0.27148-1.08789-0.4082-1.72852-0.4082
			c-0.63965,0-1.21387,0.13672-1.72168,0.4082c-0.50879,0.27246-0.9082,0.66406-1.2002,1.17578
			c-0.29199,0.5127-0.4375,1.1123-0.4375,1.80078c0,0.6875,0.14551,1.28906,0.4375,1.80566
			c0.29199,0.51563,0.69141,0.91016,1.2002,1.18164c0.50781,0.27246,1.08203,0.4082,1.72168,0.4082
			c0.64063,0,1.2168-0.13574,1.72852-0.4082c0.51172-0.27148,0.91211-0.66406,1.19922-1.17578
			c0.28906-0.51172,0.43262-1.11621,0.43262-1.81152c0-0.68848-0.14355-1.28809-0.43262-1.80078
			C155.81641,88.3584,155.41602,87.9668,154.9043,87.69434z M154.8623,91.89453c-0.18066,0.32813-0.41895,0.57227-0.71387,0.73145
			c-0.29688,0.16016-0.62109,0.24023-0.97266,0.24023s-0.67578-0.08008-0.97168-0.24023
			c-0.2959-0.15918-0.53418-0.40332-0.71387-0.73145s-0.26953-0.73633-0.26953-1.22363c0-0.48047,0.08984-0.88672,0.26953-1.21875
			s0.41797-0.57715,0.71387-0.7373s0.62012-0.24023,0.97168-0.24023s0.67578,0.08008,0.97266,0.24023
			c0.29492,0.16016,0.5332,0.40527,0.71387,0.7373c0.17969,0.33203,0.27051,0.73828,0.27051,1.21875
			C155.13281,91.1582,155.04199,91.56641,154.8623,91.89453z M161.79199,87.2627c-0.54395,0-1.02441,0.13574-1.44043,0.4082
			c-0.41602,0.27148-0.71094,0.65527-0.8877,1.15137v-1.45215h-1.36816v6.6123h1.36816V90.4668
			c0-0.67285,0.16406-1.18262,0.49219-1.53027s0.76367-0.52246,1.30762-0.52246c0.52832,0,0.94434,0.16211,1.24805,0.48633
			c0.30469,0.32422,0.45703,0.78223,0.45703,1.37402v3.70801h1.36719v-3.85156c0-0.91992-0.23242-1.62793-0.69531-2.12402
			C163.17578,87.51074,162.56055,87.2627,161.79199,87.2627z M171.62598,87.07031c0.39551-0.24805,0.84668-0.37207,1.35059-0.37207
			c0.63086,0,1.16602,0.15039,1.60156,0.4502s0.75391,0.70605,0.9541,1.21777h1.45215
			c-0.24023-0.90332-0.70508-1.62012-1.39258-2.14746c-0.6875-0.52832-1.55176-0.79199-2.5918-0.79199
			c-0.80078,0-1.50781,0.18359-2.12402,0.55176s-1.0918,0.87793-1.42773,1.53027c-0.33691,0.65137-0.50488,1.39746-0.50488,2.2373
			s0.16797,1.58594,0.50488,2.23828c0.33594,0.65234,0.81152,1.16016,1.42773,1.52441
			c0.61621,0.36328,1.32324,0.5459,2.12402,0.5459c1.04004,0,1.9043-0.2627,2.5918-0.78613
			c0.6875-0.52441,1.15234-1.23828,1.39258-2.14258h-1.45215c-0.2002,0.50488-0.51855,0.90625-0.9541,1.20605
			c-0.43555,0.30078-0.9707,0.4502-1.60156,0.4502c-0.50391,0-0.95508-0.12402-1.35059-0.37207s-0.70801-0.60156-0.93652-1.06152
			c-0.22754-0.45996-0.3418-0.99414-0.3418-1.60254c0-0.61523,0.11426-1.15332,0.3418-1.61328
			C170.91797,87.67285,171.23047,87.31836,171.62598,87.07031z M183.34375,87.69434c-0.51172-0.27148-1.08789-0.4082-1.72852-0.4082
			c-0.63965,0-1.21289,0.13672-1.7207,0.4082c-0.50879,0.27246-0.9082,0.66406-1.20117,1.17578
			c-0.29102,0.5127-0.4375,1.1123-0.4375,1.80078c0,0.6875,0.14648,1.28906,0.4375,1.80566
			c0.29297,0.51563,0.69238,0.91016,1.20117,1.18164c0.50781,0.27246,1.08105,0.4082,1.7207,0.4082
			c0.64063,0,1.2168-0.13574,1.72852-0.4082c0.51172-0.27148,0.91211-0.66406,1.2002-1.17578s0.43164-1.11621,0.43164-1.81152
			c0-0.68848-0.14355-1.28809-0.43164-1.80078C184.25586,88.3584,183.85547,87.9668,183.34375,87.69434z M183.30176,91.89453
			c-0.17969,0.32813-0.41797,0.57227-0.71387,0.73145c-0.2959,0.16016-0.62012,0.24023-0.97266,0.24023
			c-0.35156,0-0.67578-0.08008-0.9707-0.24023c-0.29688-0.15918-0.53516-0.40332-0.71484-0.73145s-0.26953-0.73633-0.26953-1.22363
			c0-0.48047,0.08984-0.88672,0.26953-1.21875s0.41797-0.57715,0.71484-0.7373c0.29492-0.16016,0.61914-0.24023,0.9707-0.24023
			c0.35254,0,0.67676,0.08008,0.97266,0.24023s0.53418,0.40527,0.71387,0.7373c0.18066,0.33203,0.27051,0.73828,0.27051,1.21875
			C183.57227,91.1582,183.48242,91.56641,183.30176,91.89453z M186.06836,92.4707v1.51172h1.54688V92.4707H186.06836z"/>
	</g>
</g>
<g id="Forma_1_1_">
	<g>
		<path class="st2" d="M61.64941,102.23145l-3.11475-3.93018l0.00293-0.00146l-5.01025-9.76367
			c-0.28418-0.55273-0.86133-0.90137-1.49268-0.90137h-7.12598v-1.63574c0-0.9043-0.74756-1.63672-1.67041-1.63672H15.40234
			c-0.92236,0-1.66992,0.73242-1.66992,1.63672c0,0.90332,0.74756,1.63574,1.66992,1.63574h26.16602v11.45508
			c0,0.90332,0.74756,1.63574,1.66992,1.63574h12.98926l2.43213,3.07031v8.43945h-3.15625
			c-0.72461-2.8457-3.34912-4.96387-6.4751-4.96387s-5.75049,2.11816-6.4751,4.96387h-9.87549
			c-0.72461-2.8457-3.34863-4.96387-6.4751-4.96387s-5.75049,2.11816-6.4751,4.96387h-4.3252
			c-0.92236,0-1.66992,0.73242-1.66992,1.63574c0,0.9043,0.74756,1.63672,1.66992,1.63672h4.354
			c0.76367,2.79102,3.36035,4.85449,6.44629,4.85449c3.08643,0,5.68262-2.06348,6.44629-4.85449h9.93311
			c0.76367,2.79102,3.36035,4.85449,6.44629,4.85449c3.08691,0,5.68262-2.06348,6.44629-4.85449h4.85498
			c0.92285,0,1.67041-0.73242,1.67041-1.63672v-10.63574C62,102.87207,61.87646,102.51855,61.64941,102.23145z M44.90869,97.45313
			V90.9082h6.09619l3.3584,6.54492H44.90869z M26.20264,117.08984c-1.84229,0-3.34033-1.46777-3.34033-3.27344
			c0-1.80469,1.49805-3.27246,3.34033-3.27246c1.8418,0,3.34033,1.46777,3.34033,3.27246
			C29.54297,115.62207,28.04492,117.08984,26.20264,117.08984z M49.02832,117.08984c-1.84229,0-3.34033-1.46777-3.34033-3.27344
			c0-1.80469,1.49805-3.27246,3.34033-3.27246s3.34033,1.46777,3.34033,3.27246
			C52.36865,115.62207,50.87061,117.08984,49.02832,117.08984z M22.75098,105.58008c0-0.90332-0.74756-1.63574-1.66992-1.63574
			h-7.68311c-0.92236,0-1.66992,0.73242-1.66992,1.63574c0,0.9043,0.74756,1.63672,1.66992,1.63672h7.68262
			C22.00342,107.2168,22.75098,106.48438,22.75098,105.58008z M26.59229,99.14453c0-0.9043-0.74756-1.63672-1.66992-1.63672
			H10.66992C9.74756,97.50781,9,98.24023,9,99.14453c0,0.90332,0.74756,1.63574,1.66992,1.63574h14.25244
			C25.84473,100.78027,26.59229,100.04785,26.59229,99.14453z M13.39795,94.34375h14.25244
			c0.92236,0,1.66992-0.73242,1.66992-1.63574c0-0.9043-0.74756-1.63672-1.66992-1.63672H13.39795
			c-0.92236,0-1.66992,0.73242-1.66992,1.63672C11.72803,93.61133,12.47559,94.34375,13.39795,94.34375z"/>
	</g>
</g>
</svg>
